<?xml version="1.0" encoding="UTF-8" standalone="no"?>
<!-- Created with Inkscape (http://www.inkscape.org/) -->

<svg
   width="512"
   height="512"
   viewBox="0 0 512 512"
   version="1.1"
   id="svg1"
   xml:space="preserve"
   inkscape:version="1.4 (e7c3feb100, 2024-10-09)"
   sodipodi:docname="logo.svg"
   inkscape:export-filename="foreground.png"
   inkscape:export-xdpi="96"
   inkscape:export-ydpi="96"
   xmlns:inkscape="http://www.inkscape.org/namespaces/inkscape"
   xmlns:sodipodi="http://sodipodi.sourceforge.net/DTD/sodipodi-0.dtd"
   xmlns="http://www.w3.org/2000/svg"
   xmlns:svg="http://www.w3.org/2000/svg"><sodipodi:namedview
     id="namedview1"
     pagecolor="#ffffff"
     bordercolor="#000000"
     borderopacity="0.25"
     inkscape:showpageshadow="2"
     inkscape:pageopacity="0.0"
     inkscape:pagecheckerboard="0"
     inkscape:deskcolor="#d1d1d1"
     inkscape:document-units="px"
     inkscape:zoom="1.3258252"
     inkscape:cx="221.74869"
     inkscape:cy="276.05449"
     inkscape:window-width="2556"
     inkscape:window-height="1387"
     inkscape:window-x="0"
     inkscape:window-y="0"
     inkscape:window-maximized="0"
     inkscape:current-layer="layer1" /><defs
     id="defs1" /><g
     inkscape:label="BG"
     inkscape:groupmode="layer"
     id="layer1"
     style="display:inline;fill:#000000;fill-opacity:1"
     sodipodi:insensitive="true"><rect
       style="fill:#ffdd56;fill-opacity:1;stroke:none;stroke-width:0.757164;stroke-linejoin:round;stroke-dasharray:0.757164, 3.02866"
       id="rect1"
       width="511.24286"
       height="511.24283"
       x="0.37858212"
       y="0.37858212" /></g><g
     inkscape:groupmode="layer"
     id="layer2"
     inkscape:label="Scissores"><g
       id="g53"
       transform="translate(0.533337,0.45567106)"><g
         style="fill:#ffffff;fill-opacity:0;stroke:#000000;stroke-opacity:1"
         id="g1"
         transform="matrix(13.587597,0,0,13.587597,94.015509,92.948836)"><path
           d="M 16.4013,20.5 6,2 m 16,17 c 0,1.6569 -1.3431,3 -3,3 -1.6569,0 -3,-1.3431 -3,-3 0,-1.6569 1.3431,-3 3,-3 1.6569,0 3,1.3431 3,3 z"
           stroke="#1c274c"
           stroke-width="1.5"
           stroke-linecap="round"
           id="path1"
           style="fill:#ffffff;fill-opacity:0;stroke:#000000;stroke-opacity:1" /><path
           d="M 7.59865,20.5 18,2 M 2,19 c 0,1.6569 1.34315,3 3,3 1.65685,0 3,-1.3431 3,-3 0,-1.6569 -1.34315,-3 -3,-3 -1.65685,0 -3,1.3431 -3,3 z"
           stroke="#1c274c"
           stroke-width="1.5"
           stroke-linecap="round"
           id="path2"
           style="fill:#ffffff;fill-opacity:0;stroke:#000000;stroke-opacity:1" /></g><path
         style="fill:#ffffff;fill-opacity:0;stroke:#000000;stroke-width:15.556;stroke-linecap:round;stroke-linejoin:round;stroke-dasharray:15.556, 31.112;stroke-dashoffset:0;stroke-opacity:1"
         d="M 171.73333,121.6 57.600006,377.6"
         id="path3" /><path
         style="fill:#ffffff;fill-opacity:0;stroke:#000000;stroke-width:15.556;stroke-linecap:round;stroke-linejoin:round;stroke-dasharray:15.556, 31.112;stroke-dashoffset:0;stroke-opacity:1"
         d="m 339.2,116.79999 114.13332,256"
         id="path4" /></g></g></svg>
